<?xml version="1.0" encoding="UTF-8"?>
<svg id="Capa__1" data-name="Capa\_1" xmlns="http://www.w3.org/2000/svg" viewBox="0 0 627.63 1198.27">
  <path d="m627.63,939.87c0-.08,0-.16-.01-.24-.25-74.7-27.16-146.93-75.83-203.5-45.44-52.81-107.11-89-174.82-102.87v-46.6c0-21.5-17.43-38.94-38.94-38.94h-8.53V0h-14.98c-8.29,0,.21,0-16.4,0v547.74h-8.53c-21.5,0-38.94,17.43-38.94,38.94v46.6c-67.7,13.86-129.37,50.05-174.82,102.87C27.17,792.7.27,864.94,0,939.64c0,.08,0,.16,0,.24v62.43c0,8.66,7.02,15.69,15.69,15.69h173.52c7.37,62.24,60.42,110.68,124.6,110.68s117.24-48.44,124.6-110.68h173.52c8.66,0,15.69-7.02,15.69-15.69v-62.43h.01Zm-313.81,157.4c-46.86,0-85.82-34.42-92.95-79.3h185.91c-7.13,44.88-46.1,79.3-92.95,79.3h-.01ZM31.38,986.61v-31.05h455.67c8.66,0,15.69-7.02,15.69-15.69s-7.02-15.69-15.69-15.69H31.86c7.52-132.21,104.84-241.2,236.96-262.34.85-.14,1.67-.35,2.47-.61h42.52c8.66,0,15.69-7.02,15.69-15.69s-7.02-15.69-15.69-15.69h-31.78v-43.19c0-4.17,3.39-7.56,7.56-7.56h48.43c4.17,0,7.56,3.39,7.56,7.56v59.68c0,7.71,5.6,14.27,13.21,15.49,132.12,21.14,229.44,130.13,236.96,262.34h-46.7c-8.66,0-15.69,7.02-15.69,15.69s7.02,15.69,15.69,15.69h47.19v31.05H31.38Z"/>
  <path d="m349.48,1154.66l15.18,37.19c1.65,4.03,6.25,5.97,10.28,4.32h0c4.03-1.65,5.97-6.25,4.32-10.28l-16.33-40.02c-1.65-4.03-6.25-5.97-10.28-4.32h0c-4.03,1.65-5.97,6.25-4.32,10.28l1.15,2.83Z"/>
  <path d="m399.32,1130.61l25.44,28.67c2.89,3.26,7.88,3.56,11.14.66h0c3.26-2.89,3.56-7.88.66-11.14l-27.19-30.65c-2.89-3.26-7.88-3.56-11.14-.66h0c-3.26,2.89-3.56,7.88-.66,11.14l1.75,1.97Z"/>
  <path d="m437.28,1093l20.73,14.63c3.38,2.38,7.53,2.31,9.28-.17l.34-.49c1.75-2.48.43-6.42-2.95-8.8l-20.73-14.63c-3.38-2.38-7.53-2.31-9.28.17l-.34.49c-1.75,2.48-.43,6.42,2.95,8.8h0Z"/>
  <path d="m453.52,1058.75l14.2,2.87c2.31.47,4.39-.17,4.65-1.43l.78-3.85c.25-1.25-1.42-2.65-3.73-3.12l-14.2-2.87c-2.31-.47-4.39.17-4.65,1.43l-.78,3.85c-.25,1.25,1.42,2.65,3.73,3.12h0Z"/>
  <path d="m308.15,1156.38l.91,34.76c.1,3.77,3.71,6.73,8.06,6.62h0c4.36-.11,7.81-3.26,7.71-7.03l-.98-37.41c-.1-3.77-3.71-6.73-8.06-6.62h0c-4.36.11-7.81,3.26-7.71,7.03l.07,2.64Z"/>
  <path d="m282.43,1155.68l-14.35,37.52c-1.56,4.07-6.12,6.11-10.19,4.55h0c-4.07-1.56-6.11-6.12-4.55-10.19l15.44-40.37c1.56-4.07,6.12-6.11,10.19-4.55h0c4.07,1.56,6.11,6.12,4.55,10.19l-1.09,2.85Z"/>
  <path d="m232.07,1132.74l-24.8,29.23c-2.82,3.32-7.8,3.73-11.12.91h0c-3.32-2.82-3.73-7.8-.91-11.12l26.5-31.25c2.82-3.32,7.8-3.73,11.12-.91h0c3.32,2.82,3.73,7.8.91,11.12l-1.71,2.01Z"/>
  <path d="m193.28,1095.99l-20.39,15.09c-3.32,2.46-7.6,2.3-9.56-.34l-.39-.52c-1.96-2.65-.85-6.79,2.47-9.24l20.39-15.09c3.32-2.46,7.6-2.3,9.56.34l.39.52c1.96,2.65.85,6.79-2.47,9.24h0Z"/>
  <path d="m176.28,1062.11l-14.13,3.18c-2.3.52-4.38-.02-4.65-1.2l-.81-3.62c-.27-1.18,1.38-2.56,3.69-3.07l14.13-3.18c2.3-.52,4.38.02,4.65,1.2l.81,3.62c.27,1.18-1.38,2.56-3.69,3.07h0Z"/>
  <path d="m323.8,1156.48l-.14,34.77c-.01,3.77-3.56,6.82-7.92,6.8h0c-4.36-.02-7.88-3.09-7.86-6.86l.15-37.42c.01-3.77,3.56-6.82,7.92-6.8h0c4.36.02,7.88,3.09,7.86,6.86v2.65Z"/>
</svg>