<?xml version="1.0" encoding="UTF-8"?>
<svg id="Capa\_1" data-name="Capa 1" xmlns="http://www.w3.org/2000/svg" viewBox="0 0 627.63 1128.67">
  <path class="fill-current text-white" d="m627.63,939.87c0-.08,0-.16-.01-.24-.25-74.7-27.16-146.93-75.83-203.5-45.44-52.81-107.11-89-174.82-102.87v-46.6c0-21.5-17.43-38.94-38.94-38.94h-8.53V0c-14.98,0-7.44,0-14.98,0-8.29,0,.21,0-16.4,0v547.74h-8.53c-21.5,0-38.94,17.43-38.94,38.94v46.6c-67.7,13.86-129.37,50.05-174.82,102.87C27.17,792.7.27,864.94.01,939.64c0,.08-.01.16-.01.24,0,.05,0,.1,0,.15,0,.23,0,.45,0,.68v61.6c0,8.66,7.02,15.69,15.69,15.69h173.52c7.37,62.24,60.42,110.68,124.6,110.68s117.24-48.44,124.6-110.68h173.52c8.66,0,15.69-7.02,15.69-15.69v-61.6c0-.23,0-.45,0-.68,0-.05,0-.1,0-.15Zm-313.81,157.41c-46.86,0-85.82-34.42-92.95-79.3h185.91c-7.13,44.88-46.1,79.3-92.95,79.3ZM31.38,986.61v-31.05h455.67c8.66,0,15.69-7.02,15.69-15.69s-7.02-15.69-15.69-15.69H31.86c7.52-132.21,104.84-241.2,236.96-262.34.85-.14,1.67-.35,2.47-.61h42.52c8.66,0,15.69-7.02,15.69-15.69s-7.02-15.69-15.69-15.69h-31.78v-43.19c0-4.17,3.39-7.56,7.56-7.56h48.43c4.17,0,7.56,3.39,7.56,7.56v59.68c0,7.71,5.6,14.27,13.21,15.49,132.12,21.14,229.44,130.13,236.96,262.34h-46.7c-8.66,0-15.69,7.02-15.69,15.69s7.02,15.69,15.69,15.69h47.19v31.05H31.38Z"/>
</svg>